Coordinates
version=1
nRows=7
nColumns=40
inDegrees=yes

Units are S.I. units (second, meters, Newtons, ...)
Angles are in degrees.

endheader
time	pelvis_tilt	pelvis_list	pelvis_rotation	pelvis_tx	pelvis_ty	pelvis_tz	hip_flexion_r	hip_adduction_r	hip_rotation_r	knee_angle_r	knee_angle_r_beta	ankle_angle_r	subtalar_angle_r	mtp_angle_r	hip_flexion_l	hip_adduction_l	hip_rotation_l	knee_angle_l	knee_angle_l_beta	ankle_angle_l	subtalar_angle_l	mtp_angle_l	lumbar_extension	lumbar_bending	lumbar_rotation	arm_flex_r	arm_add_r	arm_rot_r	elbow_flex_r	pro_sup_r	wrist_flex_r	wrist_dev_r	arm_flex_l	arm_add_l	arm_rot_l	elbow_flex_l	pro_sup_l	wrist_flex_l	wrist_dev_l
      0.00000000	     -7.53711471	      4.81941972	      2.50241786	     -0.89374660	      0.92220872	     -1.32170613	    -10.61208975	     -3.83459007	    -14.93182051	    -13.27289436	     -0.23165571	     12.78960334	     11.87897846	    -18.98808785	     32.21253866	      3.53230400	     22.42882785	     -7.81729933	     -0.13643761	     -4.30688838	     -7.68132952	      0.54975115	      3.66383528	     -6.07339697	     11.27076825	      6.13223191	    -15.53168489	    -12.84407007	     49.31293528	     89.95437384	      0.00000000	      0.00000000	    -20.56033806	      6.35829465	      7.00870692	     13.73018600	     89.95437384	      0.00000000	      0.00000000
      0.01000000	     -7.16959696	      5.04163560	      1.87327232	     -0.87810139	      0.92079593	     -1.32574542	    -11.69374602	     -4.55476212	    -14.36878237	    -13.81639210	     -0.24114153	     12.28286209	     11.83341904	    -18.70486769	     31.93690427	      3.48197641	     21.76194188	     -8.73384903	     -0.15243442	     -3.89533878	     -7.04529127	      0.43352146	      3.65433100	     -6.22976401	     11.63036686	      5.98261578	    -15.63070655	    -12.97634219	     50.22599614	     89.95437384	      0.00000000	      0.00000000	    -21.32780386	      6.10673246	      6.47891510	     12.49384325	     89.95437384	      0.00000000	      0.00000000
      0.02000000	     -6.73428382	      5.31807270	      1.35206826	     -0.86200407	      0.91970806	     -1.33000584	    -12.75502914	     -5.38413401	    -14.18223879	    -14.58389154	     -0.25453693	     11.38606679	     11.74173140	    -18.26816794	     31.49936969	      3.27636711	     20.73669493	     -9.92483699	     -0.17322108	     -3.27350108	     -5.89806205	      0.28949531	      3.60510875	     -6.46681504	     11.91082463	      5.65502478	    -15.59624904	    -13.35668024	     51.14326489	     89.95437384	      0.00000000	      0.00000000	    -22.08823168	      5.93462406	      5.67347379	     11.41275531	     89.95437384	      0.00000000	      0.00000000
      0.03000000	     -6.32385902	      5.91127023	      0.93648315	     -0.84546817	      0.91879352	     -1.33514645	    -13.71689504	     -6.73331960	    -14.55535369	    -15.59465268	     -0.27217803	     10.42694464	     12.50349612	    -18.04677736	     30.69827890	      2.32398355	     18.49903535	    -10.58102973	     -0.18467381	     -2.70278667	     -2.52290789	      0.27217827	      3.64539358	     -6.98621974	     12.18063339	      5.12463872	    -15.56592866	    -13.85307713	     52.07811865	     89.95437384	      0.00000000	      0.00000000	    -23.07476860	      5.98617190	      3.33190186	     10.90487239	     89.95437384	      0.00000000	      0.00000000
      0.04000000	     -5.96983775	      6.15795631	      0.45441509	     -0.82865612	      0.91776314	     -1.33980889	    -14.52500375	     -7.64037590	    -14.39343570	    -16.64697172	     -0.29054447	      9.28753349	     12.27164922	    -17.47780259	     30.27721137	      2.09922537	     17.90087171	    -12.16666325	     -0.21234833	     -2.39415115	     -1.65332455	      0.14829916	      3.78686793	     -7.16119695	     12.35666389	      4.61098635	    -15.57303059	    -14.04753390	     52.84244647	     89.95437384	      0.00000000	      0.00000000	    -23.77982072	      5.78585681	      2.84139441	      9.90523096	     89.95437384	      0.00000000	      0.00000000
      0.05000000	     -5.48564355	      6.52136434	      0.13306772	     -0.81163241	      0.91715272	     -1.34475858	    -15.46753490	     -8.69052789	    -14.64081529	    -17.72498411	     -0.30935933	      7.77610498	     12.49277065	    -16.93344937	     29.72956548	      1.71094405	     18.16197923	    -13.47108939	     -0.23511486	     -5.25541236	      0.24051020	      0.65589618	      3.76191444	     -7.48517512	     12.34030505	      4.06593815	    -15.41760412	    -14.46450853	     53.61868743	     89.95437384	      0.00000000	      0.00000000	    -24.45664210	      5.67827409	      2.08997560	      9.11219559	     89.95437384	      0.00000000	      0.00000000
      0.06000000	     -5.01399041	      7.37792178	     -0.03450825	     -0.79476771	      0.91710157	     -1.35020261	    -16.15924458	    -10.41680982	    -15.58298070	    -19.32831786	     -0.33734279	      6.08461174	     13.26494251	    -16.49102505	     28.79991325	      0.57201252	     17.58622824	    -13.79024139	     -0.24068512	     -8.93660229	      2.55962276	      1.15726771	      3.73337523	     -8.39509556	     12.29065746	      3.53612792	    -15.15743898	    -14.91853134	     53.99206388	     89.95437384	      0.00000000	      0.00000000	    -25.10143653	      5.78819412	      0.68833527	      8.62484114	     89.95437384	      0.00000000	      0.00000000
